<svg width="90" height="21" viewBox="0 0 90 21" fill="none" xmlns="http://www.w3.org/2000/svg">
<path d="M1.3747 20.5664H0.497084C0.0875292 20.5664 -0.000232728 20.4786 0.116783 20.0983C0.175291 19.8643 0.46783 18.9574 0.643354 14.9497L1.22843 3.3651C1.25769 2.86778 1.25769 2.45823 1.25769 2.10718C1.25769 1.02478 1.16992 0.673737 1.11142 0.468958C1.02365 0.0886571 1.11142 0.000896483 1.52097 0.000896483H2.95441C3.62725 0.000896483 3.77352 0.117911 4.00756 0.644482L11.4381 17.6703L19.0441 0.498212C19.2196 0.0594036 19.3366 0.000896483 19.8339 0.000896483H21.1504C21.5599 0.000896483 21.6477 0.0886571 21.5599 0.468958C21.5307 0.615228 21.4722 0.878513 21.4722 1.63912C21.4722 1.9024 21.4722 2.25345 21.5014 2.69226L22.1157 15.6225C22.2913 19.25 22.4375 19.8058 22.5545 20.0983C22.6716 20.4786 22.5545 20.5664 22.1742 20.5664H20.4775C20.068 20.5664 19.9802 20.4786 20.068 20.0983C20.0972 19.9521 20.2142 19.718 20.2142 18.4309C20.2142 17.8165 20.2142 16.9974 20.1265 15.8273L19.3951 2.45823H19.3659L11.3503 20.2739C11.2625 20.5079 11.2333 20.5664 10.9407 20.5664H10.7945C10.5312 20.5664 10.4434 20.5079 10.3557 20.2739L2.4571 2.42897L1.81351 14.9789C1.72575 16.6756 1.72575 17.7873 1.72575 18.5186C1.72575 19.8643 1.78426 20.0106 1.81351 20.0983C1.87202 20.4786 1.78426 20.5664 1.3747 20.5664ZM43.2142 0.000896483H44.0041C44.4136 0.000896483 44.4721 0.0886571 44.3844 0.468958C44.2966 0.790751 44.1211 1.34658 44.1211 5.32511V12.8434C44.1211 18.1091 41.459 20.8589 36.4566 20.8589C31.0153 20.8589 28.441 18.0213 28.441 12.8141V5.32511C28.441 1.46359 28.2362 0.790751 28.1484 0.468958C28.0607 0.0886571 28.1192 0.000896483 28.558 0.000896483H30.3717C30.752 0.000896483 30.8398 0.0886571 30.7228 0.468958C30.635 0.761497 30.4888 1.40508 30.4888 4.506V12.7556C30.4888 17.29 32.1855 19.8643 36.7198 19.8643C40.7861 19.8643 43.0972 17.4655 43.0972 12.8434V5.32511C43.0972 1.34658 42.8924 0.790751 42.8339 0.468958C42.7462 0.0886571 42.8047 0.000896483 43.2142 0.000896483ZM65.1832 0.000896483H65.9731C66.3826 0.000896483 66.4411 0.0886571 66.3534 0.468958C66.2656 0.790751 66.0901 1.34658 66.0901 5.32511V12.8434C66.0901 18.1091 63.428 20.8589 58.4256 20.8589C52.9843 20.8589 50.41 18.0213 50.41 12.8141V5.32511C50.41 1.46359 50.2052 0.790751 50.1175 0.468958C50.0297 0.0886571 50.0882 0.000896483 50.527 0.000896483H52.3408C52.7211 0.000896483 52.8088 0.0886571 52.6918 0.468958C52.604 0.761497 52.4578 1.40508 52.4578 4.506V12.7556C52.4578 17.29 54.1545 19.8643 58.6889 19.8643C62.7552 19.8643 65.0662 17.4655 65.0662 12.8434V5.32511C65.0662 1.34658 64.8614 0.790751 64.8029 0.468958C64.7152 0.0886571 64.7737 0.000896483 65.1832 0.000896483ZM72.7008 0.000896483H77.3229C85.046 0.000896483 89.3463 3.0433 89.3463 10.3275C89.3463 17.4947 85.2215 20.5664 77.1181 20.5664H72.7008C72.2912 20.5664 72.2035 20.4786 72.3205 20.0983C72.4083 19.7766 72.5838 19.1037 72.5838 15.2422V5.32511C72.5838 1.46359 72.4083 0.790751 72.3205 0.468958C72.2035 0.0886571 72.2912 0.000896483 72.7008 0.000896483ZM76.9719 19.8351C84.2268 19.8351 87.123 17.1144 87.123 10.269C87.123 3.33584 84.1683 0.761497 76.9719 0.761497C75.5092 0.761497 74.9826 0.878513 74.7778 1.17105C74.7193 1.66837 74.6608 2.51673 74.6608 4.03794V15.2422C74.6608 17.6703 74.7193 18.8404 74.7778 19.4548C74.9826 19.718 75.5384 19.8351 76.9719 19.8351Z" fill="white"/>
</svg>
